<?xml version="1.0" encoding="utf-8"?>
<!-- Generator: Adobe Illustrator 19.0.0, SVG Export Plug-In . SVG Version: 6.00 Build 0)  -->
<svg version="1.1" id="layer" xmlns="http://www.w3.org/2000/svg" xmlns:xlink="http://www.w3.org/1999/xlink" x="0px" y="0px"
	 viewBox="-153 -46 652 652" style="enable-background:new -153 -46 652 652;" xml:space="preserve">
<path id="XMLID_2_" d="M473.2,333.5h-18.7V322c-5,9.3-15.4,14-26.4,14c-25.1,0-39.9-19.9-39.9-42.4c0-25.1,17.9-42.3,39.9-42.3
	c14.3,0,23,7.7,26.4,14.1v-11.6h18.7V333.5z M407,293.9c0,9.9,7,24.3,23.8,24.3c10.4,0,17.3-5.5,20.9-12.8c1.9-3.5,2.7-7.3,3-11.3
	c0.1-3.8-0.6-7.7-2.2-11.2c-3.2-7.5-10.5-14.1-21.8-14.1c-15.2,0-23.7,12.5-23.7,24.8L407,293.9L407,293.9z M317.1,225.9h18.7V284
	l27-30.4h22.5l-32.6,35.2l32.6,44.6h-21.4l-28.1-39.8v39.8h-18.7V225.9 M273.2,268.4h-9.7v-14.7h9.7v-4.5
	c0-23.7,17.7-25.1,31.1-25.3v14.7c-4.7,0-12.4,0-12.4,11.2v3.9h12.4v14.7h-12.4v65.1h-18.7V268.4z M252,333.5h-18.7V322
	c-5,9.3-15.4,14-26.4,14c-25.1,0-39.9-19.9-39.9-42.4c0-25.1,17.9-42.3,39.9-42.3c14.3,0,23,7.7,26.4,14.1v-11.6H252V333.5z
	 M185.7,293.9c0,9.9,7,24.3,23.9,24.3c10.4,0,17.3-5.5,20.9-12.8c1.9-3.5,2.7-7.3,3-11.3c0.1-3.8-0.6-7.7-2.2-11.2
	c-3.3-7.5-10.6-14.1-21.8-14.1c-15.1,0-23.7,12.5-23.7,24.8V293.9L185.7,293.9z M95.9,226h18.7v58.1l27-30.4h22.5l-32.6,35.2
	l32.6,44.5h-21.4l-28.1-39.8v39.8H95.8L95.9,226 M21.4,220.2l-0.1-0.2c-2.2-3.8-5.8-6.6-10.1-7.8c-4.3-1.2-8.9-0.6-12.8,1.7h0
	c-4,2.3-6.7,6.1-7.8,10.4c-1.2,4.4-0.5,9,1.7,13l0.1,0.1c2.3,4,6,6.7,10.1,7.8c4.1,1.2,8.8,0.7,12.8-1.7l0.2-0.1
	c3.9-2.4,6.6-6.1,7.6-10.3C24.2,228.9,23.8,224.3,21.4,220.2 M-72.8,233.3c9.6,1.6,18.5,6.3,25.3,13.3h0.1l3.1,3.5l16.8-9.9
	c-2.2-6.8-2.4-14.1-0.5-21c2.4-9.1,8.2-17.2,16.9-22.4l0.3-0.2c8.2-4.8,18-6.1,27.2-3.6c9.3,2.6,17.2,8.7,22,17.1v0
	c5,8.8,6,18.9,3.6,27.9c-2.4,9.1-8.2,17.3-16.9,22.4l-2.3,1.4h-0.2c-7.8,3.8-16.6,4.6-25,2.3c-6.8-1.9-12.9-5.7-17.6-11l-16.7,9.8
	c2,5.3,3,11,3,16.7c0,5.9-1.1,11.5-3,16.7l16.7,9.8c4.8-5.5,10.9-9.1,17.6-11c8.9-2.5,18.8-1.4,27.5,3.7l0.5,0.3v0
	c8.1,5,14,12.9,16.3,22.1c2.5,9.4,1.2,19.4-3.6,27.9l-0.3,0.6h0c-4.8,8.2-12.6,14.1-21.6,16.7c-8.9,2.4-18.9,1.4-27.5-3.7V363
	c-8.4-4.9-14.4-13-16.9-22.4c-1.8-6.9-1.6-14.2,0.5-21l-16.8-9.9l-3.1,3.4l0,0.1c-6.7,6.9-15.5,11.6-25.3,13.2v19.7
	c6.9,1.5,13.2,5,18.1,10l0,0.1c6.6,6.6,10.6,15.9,10.6,26c0,9.7-3.8,19.1-10.6,26l0,0.1c-6.6,6.6-15.6,10.7-25.6,10.7
	c-9.9,0-19-4.1-25.6-10.8h0v-0.1c-6.8-6.9-10.6-16.3-10.6-26c0-10.1,4.1-19.4,10.6-26v-0.1h0c4.9-5.1,11.2-8.6,18.1-10v-19.7
	c-9.8-1.6-18.5-6.4-25.2-13.2l-0.1-0.1c-8.8-8.9-13.7-20.9-13.7-33.4c0-13,5.2-24.8,13.6-33.3h0.1c6.8-7,15.6-11.6,25.2-13.3v-19.6
	c-6.8-1.5-13.1-5-18.1-10h0v-0.1c-6.8-6.9-10.6-16.3-10.6-26c0-9.7,3.8-19.1,10.6-26l0.1,0c6.7-6.9,15.9-10.8,25.5-10.8
	c10,0,19,4.1,25.6,10.8v0h0c6.6,6.7,10.6,15.9,10.6,26c0,9.7-3.8,19.1-10.6,26l0,0.1c-4.9,4.9-11.1,8.5-18.1,10L-72.8,233.3
	L-72.8,233.3z M-63.1,262.4c-4.4-4.5-10.5-7.3-17.2-7.3c-6.5,0-12.7,2.6-17.2,7.3c-4.4,4.5-7.1,10.6-7.1,17.5
	c0,6.6,2.5,12.9,7.1,17.6c4.4,4.4,10.5,7.2,17.2,7.2c6.7,0,12.8-2.8,17.2-7.2c4.6-4.7,7.1-11,7.1-17.6
	C-56,273.4-58.6,267.1-63.1,262.4L-63.1,262.4z M11.2,347.6c4.3-1.2,8-4,10.2-7.9l0.3-0.6c2-3.8,2.5-8.2,1.3-12.4
	c-1.1-4.3-3.8-8-7.8-10.4l-0.2-0.2c-3.8-2.1-8.3-2.7-12.5-1.5c-4.2,1.1-7.9,3.9-10.2,8c-2.2,3.9-2.8,8.6-1.7,13
	c1.2,4.4,4,8.1,7.8,10.4h0C2.5,348.3,7,348.7,11.2,347.6L11.2,347.6z M-80.3,399.4c4.7,0,8.9-1.9,11.9-5l0-0.1c3-3,4.8-7.3,4.8-12
	c0-4.8-1.8-9-4.8-12.1h0c-3-3.1-7.2-5-11.9-5c-4.5,0-8.8,1.8-11.8,5h-0.1c-3.2,3.3-4.9,7.6-4.9,12.1c0,4.5,1.7,8.8,4.9,12l0.1,0.1
	C-89,397.6-84.8,399.4-80.3,399.4z M-68.4,165.4c-3-3.1-7.2-5-11.9-5c-4.5,0-8.7,1.8-11.8,5h-0.1c-3.2,3.2-5,7.6-4.9,12.1
	c0,4.5,1.7,8.9,4.9,12.1l0.1,0.1c3.1,3.2,7.4,5,11.8,4.9c4.7,0,8.9-1.9,11.9-4.9l0-0.1c3-3,4.8-7.3,4.8-12.1
	C-63.6,173-65.3,168.6-68.4,165.4L-68.4,165.4L-68.4,165.4z"/>
</svg>
